<svg width="400" height="250" viewBox="0 0 400 250" xmlns="http://www.w3.org/2000/svg">
  <defs>
    <linearGradient id="grad4" x1="0%" y1="0%" x2="100%" y2="100%">
      <stop offset="0%" style="stop-color:#8b5cf6;stop-opacity:1" />
      <stop offset="100%" style="stop-color:#7c3aed;stop-opacity:1" />
    </linearGradient>
  </defs>
  
  <!-- Background -->
  <rect width="400" height="250" fill="url(#grad4)"/>
  
  <!-- Trophy/Award -->
  <path d="M200 50 L220 80 L240 70 L250 100 L200 110 L150 100 L160 70 L180 80 Z" fill="#fbbf24"/>
  <rect x="190" y="110" width="20" height="30" fill="#fbbf24"/>
  <rect x="180" y="140" width="40" height="10" rx="5" fill="#fbbf24"/>
  
  <!-- Podium steps -->
  <rect x="100" y="180" width="60" height="50" fill="white" opacity="0.8"/>
  <rect x="170" y="160" width="60" height="70" fill="white" opacity="0.9"/>
  <rect x="240" y="190" width="60" height="40" fill="white" opacity="0.7"/>
  
  <!-- Position numbers -->
  <text x="130" y="210" font-family="Arial, sans-serif" font-size="24" font-weight="bold" fill="#7c3aed" text-anchor="middle">2</text>
  <text x="200" y="200" font-family="Arial, sans-serif" font-size="28" font-weight="bold" fill="#7c3aed" text-anchor="middle">1</text>
  <text x="270" y="215" font-family="Arial, sans-serif" font-size="20" font-weight="bold" fill="#7c3aed" text-anchor="middle">3</text>
  
  <!-- Stars for excellence -->
  <polygon points="70,40 72,46 78,46 73,50 75,56 70,52 65,56 67,50 62,46 68,46" fill="white" opacity="0.8"/>
  <polygon points="330,60 332,66 338,66 333,70 335,76 330,72 325,76 327,70 322,66 328,66" fill="white" opacity="0.8"/>
  <polygon points="350,30 352,36 358,36 353,40 355,46 350,42 345,46 347,40 342,36 348,36" fill="white" opacity="0.8"/>
</svg>