<svg width="400" height="250" viewBox="0 0 400 250" xmlns="http://www.w3.org/2000/svg">
  <defs>
    <linearGradient id="grad1" x1="0%" y1="0%" x2="100%" y2="100%">
      <stop offset="0%" style="stop-color:#fb923c;stop-opacity:1" />
      <stop offset="100%" style="stop-color:#f59e0b;stop-opacity:1" />
    </linearGradient>
  </defs>
  
  <!-- Background -->
  <rect width="400" height="250" fill="url(#grad1)"/>
  
  <!-- Calculator icon -->
  <rect x="150" y="80" width="100" height="120" rx="8" fill="white" opacity="0.9"/>
  <rect x="160" y="90" width="80" height="15" rx="2" fill="#374151"/>
  <circle cx="175" cy="120" r="8" fill="#6b7280"/>
  <circle cx="200" cy="120" r="8" fill="#6b7280"/>
  <circle cx="225" cy="120" r="8" fill="#6b7280"/>
  <circle cx="175" cy="140" r="8" fill="#6b7280"/>
  <circle cx="200" cy="140" r="8" fill="#6b7280"/>
  <circle cx="225" cy="140" r="8" fill="#6b7280"/>
  <circle cx="175" cy="160" r="8" fill="#6b7280"/>
  <circle cx="200" cy="160" r="8" fill="#6b7280"/>
  <rect x="215" y="152" width="20" height="16" rx="2" fill="#f59e0b"/>
  
  <!-- Grade elements -->
  <text x="100" y="60" font-family="Arial, sans-serif" font-size="24" font-weight="bold" fill="white">10</text>
  <text x="320" y="80" font-family="Arial, sans-serif" font-size="20" font-weight="bold" fill="white">9.5</text>
  <text x="80" y="200" font-family="Arial, sans-serif" font-size="18" font-weight="bold" fill="white">8.7</text>
  <text x="300" y="220" font-family="Arial, sans-serif" font-size="22" font-weight="bold" fill="white">9.2</text>
  
  <!-- Mathematical symbols -->
  <text x="130" y="60" font-family="Arial, sans-serif" font-size="20" fill="white">+</text>
  <text x="270" y="80" font-family="Arial, sans-serif" font-size="16" fill="white">×</text>
  <text x="280" y="200" font-family="Arial, sans-serif" font-size="18" fill="white">=</text>
</svg>