<svg width="400" height="250" viewBox="0 0 400 250" xmlns="http://www.w3.org/2000/svg">
  <defs>
    <linearGradient id="grad6" x1="0%" y1="0%" x2="100%" y2="100%">
      <stop offset="0%" style="stop-color:#06b6d4;stop-opacity:1" />
      <stop offset="100%" style="stop-color:#0891b2;stop-opacity:1" />
    </linearGradient>
  </defs>
  
  <!-- Background -->
  <rect width="400" height="250" fill="url(#grad6)"/>
  
  <!-- Graduation cap -->
  <path d="M200 80 L250 100 L200 120 L150 100 Z" fill="white" opacity="0.9"/>
  <rect x="195" y="70" width="10" height="30" fill="white" opacity="0.9"/>
  <circle cx="205" cy="70" r="3" fill="#0891b2"/>
  
  <!-- Master's degree scroll -->
  <rect x="120" y="140" width="160" height="80" rx="10" fill="white" opacity="0.9"/>
  <rect x="130" y="150" width="140" height="3" fill="#0891b2"/>
  <text x="200" y="175" font-family="Arial, sans-serif" font-size="16" font-weight="bold" fill="#0891b2" text-anchor="middle">MASTER</text>
  <text x="200" y="195" font-family="Arial, sans-serif" font-size="14" fill="#0891b2" text-anchor="middle">Media: 9.2</text>
  <text x="200" y="210" font-family="Arial, sans-serif" font-size="12" fill="#0891b2" text-anchor="middle">Credite: 120 ECTS</text>
  
  <!-- Academic elements -->
  <circle cx="80" cy="60" r="15" fill="white" opacity="0.7"/>
  <text x="80" y="68" font-family="Arial, sans-serif" font-size="18" font-weight="bold" fill="#0891b2" text-anchor="middle">M</text>
  
  <circle cx="320" cy="80" r="18" fill="white" opacity="0.7"/>
  <text x="320" y="88" font-family="Arial, sans-serif" font-size="20" font-weight="bold" fill="#0891b2" text-anchor="middle">A</text>
  
  <!-- Books stack -->
  <rect x="50" y="160" width="40" height="6" fill="white" opacity="0.8"/>
  <rect x="50" y="170" width="35" height="6" fill="white" opacity="0.7"/>
  <rect x="50" y="180" width="38" height="6" fill="white" opacity="0.6"/>
  
  <rect x="310" y="150" width="45" height="8" fill="white" opacity="0.8"/>
  <rect x="310" y="160" width="40" height="8" fill="white" opacity="0.7"/>
  <rect x="310" y="170" width="42" height="8" fill="white" opacity="0.6"/>
</svg>