<svg width="400" height="250" viewBox="0 0 400 250" xmlns="http://www.w3.org/2000/svg">
  <defs>
    <linearGradient id="grad3" x1="0%" y1="0%" x2="100%" y2="100%">
      <stop offset="0%" style="stop-color:#10b981;stop-opacity:1" />
      <stop offset="100%" style="stop-color:#059669;stop-opacity:1" />
    </linearGradient>
  </defs>
  
  <!-- Background -->
  <rect width="400" height="250" fill="url(#grad3)"/>
  
  <!-- Scholarship/Award icon -->
  <circle cx="200" cy="100" r="40" fill="white" opacity="0.9"/>
  <polygon points="200,70 210,90 230,90 215,105 220,125 200,115 180,125 185,105 170,90 190,90" fill="#fbbf24"/>
  
  <!-- Money/coins -->
  <circle cx="120" cy="180" r="15" fill="#fbbf24" opacity="0.8"/>
  <text x="120" y="185" font-family="Arial, sans-serif" font-size="12" font-weight="bold" fill="white" text-anchor="middle">€</text>
  
  <circle cx="280" cy="170" r="18" fill="#fbbf24" opacity="0.8"/>
  <text x="280" y="177" font-family="Arial, sans-serif" font-size="14" font-weight="bold" fill="white" text-anchor="middle">€</text>
  
  <!-- Books -->
  <rect x="50" y="60" width="25" height="40" rx="2" fill="white" opacity="0.7"/>
  <rect x="55" y="65" width="15" height="2" fill="#059669"/>
  <rect x="55" y="70" width="12" height="2" fill="#059669"/>
  <rect x="55" y="75" width="18" height="2" fill="#059669"/>
  
  <rect x="320" y="40" width="30" height="45" rx="2" fill="white" opacity="0.7"/>
  <rect x="325" y="45" width="20" height="2" fill="#059669"/>
  <rect x="325" y="50" width="15" height="2" fill="#059669"/>
  <rect x="325" y="55" width="22" height="2" fill="#059669"/>
  
  <!-- Academic cap -->
  <path d="M200 150 L230 160 L200 170 L170 160 Z" fill="white" opacity="0.8"/>
  <rect x="195" y="145" width="10" height="20" fill="white" opacity="0.8"/>
</svg>